<svg xmlns="http://www.w3.org/2000/svg" viewBox="0 0 82 82"><circle cx="41" cy="41" r="41" fill="none"/><path fill="#fff" d="M21.47 63.68h-6.7c-.34 0-.69-.05-1.02-.14-.51-.13-.98-.24-1.51.02-.55.26-1.21-.21-1.21-.85 0-2.74.02-5.48.04-8.22 0-.96.06-1.92.05-2.89-.04-3.94.2-7.87.67-11.79.14-1.15.41-1.46 1.57-1.65 4.1-.68 8.21-1.28 12.37-1.5 2.92-.15 5.84-.23 8.76-.31.72-.02 1.45.04 2.17.1 1 .09 1.52.65 1.47 1.65-.14 2.72-.33 5.43-.49 8.15-.16 2.74-.35 5.47-.47 8.21-.11 2.76-.15 5.51-.22 8.27-.03 1.32-.63 1.81-1.93 1.72-2.1-.15-4.2-.24-6.31-.35-2.41-.12-4.82-.22-7.24-.33v-.1Zm12.51-2.23c.05-1.34.1-2.59.16-3.84.15-3.04.3-6.09.47-9.13.15-2.72.35-5.43.47-8.15.05-1.12.14-1.08-1-1.05-4.73.13-9.47.28-14.2.45-1.31.05-2.6.28-3.8.85-1.03.49-1.71 1.27-1.81 2.46-.12 1.45-.24 2.89-.32 4.34-.23 4.2-.43 8.41-.66 12.61-.02.38.09.53.47.54 3.45.14 6.89.29 10.33.45 1.87.08 3.73.17 5.6.26 1.41.07 2.82.14 4.29.21ZM42.3 9.11h9.97c.25 0 .51.02.76.06.86.17 1.26.6 1.36 1.46.55 4.77.77 9.55.59 14.35-.1 2.85-.12 5.7-.17 8.55-.02 1.5-.55 1.98-2.04 2.04-3.05.13-6.09.3-9.13.48-2.25.13-4.48.2-6.74.02-2.08-.17-4.09-.56-6.08-1.11-.52-.14-1.01-.41-1.47-.68-.47-.28-.43-.78.01-1.25.15-.16.29-.41.31-.62.06-.87.08-1.74.11-2.61.1-3.43.21-6.86.28-10.28.05-2.7.04-5.41.05-8.11v-.6c.06-1.01.53-1.53 1.53-1.64.52-.06 1.05-.05 1.58-.05h9.1Zm-9.27 3.03c0 1.05.02 2.01 0 2.97-.11 5.77-.21 11.54-.34 17.32-.01.53.2.73.68.74 1.94.06 3.88.21 5.82.15 3.19-.1 6.38-.33 9.57-.5 1.03-.06 2.06-.12 3.14-.19v-.68c.04-2.23.04-4.47.13-6.7.16-4.21.13-8.42-.32-12.62-.04-.42-.2-.5-.58-.5-5.3.01-10.61 0-15.91 0h-2.18ZM56.41 64.22c-2.65 0-5.3.01-7.95 0-1.31 0-2.61-.06-3.92-.11-.96-.04-1.45-.49-1.61-1.44-.03-.18-.07-.36-.08-.54-.04-3.14-.15-6.28-.1-9.42.06-3.74.26-7.47.4-11.2.02-.65 0-1.31.02-1.96.04-1.07.46-1.34 1.52-1.41 1.17-.07 2.33-.33 3.48-.54 2.89-.53 5.76-1.17 8.66-1.6 2.46-.37 4.93-.26 7.24.88 1.21.6 2.12 1.52 2.73 2.71.98 1.91 1.45 3.98 1.74 6.09.45 3.24.26 6.49-.02 9.73-.21 2.38-.6 4.74-.94 7.11-.17 1.19-.65 1.58-1.86 1.6-1.98.03-3.96.03-5.94.04H56.4v.07ZM45.79 61.3h3.84c4.94-.03 9.87-.07 14.81-.09.28 0 .38-.08.41-.35.11-.83.26-1.65.37-2.47.52-3.96.88-7.93.4-11.93-.21-1.75-.56-3.47-1.26-5.1-.38-.9-.99-1.6-1.94-1.85-1.08-.29-2.18-.55-3.29-.64-2.11-.16-4.2.14-6.26.59-2.28.5-4.57.98-6.86 1.46-.38.08-.56.23-.47.66.08.44.11.9.11 1.35 0 4.46-.01 8.93 0 13.39 0 1.61.08 3.22.13 4.97Z"/><path fill="#fff" d="M28.79 56.75c0 .84-.2 1.18-.8 1.37-.56.18-1.1-.04-1.52-.67-.23-.35-.36-.76-.61-1.09-.15-.2-.44-.4-.67-.41-1.12-.04-2.25 0-3.38-.03-.39 0-.52.17-.55.5-.05.47-.09.94-.14 1.41-.11 1-.94 1.63-1.86 1.41-.72-.17-1.07-.58-1.01-1.32.43-5.04 1.25-10 3.32-14.67.04-.08.08-.16.11-.25.45-1.35 2.05-1.28 2.68-.22.48.8 1 1.63 1.27 2.52 1.07 3.51 2.05 7.05 3.06 10.59.08.27.07.57.1.86Zm-7.25-3.07c1.26-.14 2.33-.25 3.47-.37-.49-2.14-1.01-4.17-1.73-6.16h-.23c-.49 2.13-.99 4.26-1.52 6.53ZM36.98 21.68c.04-1.92.53-3.7 2.13-4.91 1.95-1.48 4.09-1.35 6.24-.45.53.22.8.94.64 1.48-.17.58-.72.94-1.39.9-.65-.04-1.3-.12-1.95-.13-1.35-.02-2.23.53-2.56 1.82-.47 1.8-.21 3.52 1.13 4.91 1.24 1.29 2.59 1.33 4.04.25.57-.42 1.14-.83 1.74-1.22.24-.16.52-.27.79-.35 1.01-.33 1.83.34 1.61 1.39-.11.52-.38 1.09-.76 1.46-1.43 1.36-3.16 2.23-5.14 2.37-1.82.13-3.37-.59-4.56-1.99-1.36-1.59-1.96-3.45-1.95-5.53ZM59.6 51.14c1.49.8 2.48 3 2.11 4.63-.55 2.43-1.92 3.95-4.02 4.23-1.47.2-2.81-.18-3.77-1.44-.13-.17-.4-.31-.62-.32-.61-.02-.96-.3-1.1-.86-.09-.35-.17-.71-.18-1.07-.05-3.85-.1-7.69-.13-11.54 0-.68.29-1.17.98-1.46 1.36-.58 2.75-.67 4.16-.4 1.91.37 3.23 1.89 3.44 3.86.15 1.43-.01 2.79-.76 4.04-.05.09-.08.2-.13.33Zm-4.88 5.18c.71.2 1.48.4 2.24.64.46.14.83.02 1.15-.28.91-.86.95-2.61-.61-3.12-.57-.18-1.21-.19-1.83-.2-.75-.02-.92.16-.95.93-.03.67 0 1.33 0 2.03Zm.11-5.94c.79-.04 1.4-.34 1.89-.84.59-.6.96-1.3.73-2.19-.26-1-.9-1.59-1.92-1.73-.33-.05-.69 0-.69.46v4.3Z"/></svg>