<svg xmlns="http://www.w3.org/2000/svg" viewBox="0 0 82 82"><circle cx="41" cy="41" r="41" fill="none"/><path fill="#fff" d="M41.69 61.07c-.8 2.8-2.1 5.25-4.09 7.29-3.34 3.42-7.38 4.2-11.87 2.9-4.46-1.29-7.82-4.11-10.51-7.8-1.41-1.93-2.49-4.02-3.02-6.36-.35-1.53-.46-3.08-.18-4.64.06-.32.07-.58-.24-.8-.25-.18-.19-.36.12-.5.22-.1.47-.29.56-.5 1.83-4.38 5.42-6.56 9.74-7.81.74-.21 1.5-.37 2.25-.51.32-.06.34-.2.3-.48-.26-1.55-.55-3.1-.72-4.67-.2-1.95 0-3.87.71-5.71.86-2.24 2.5-3.56 4.91-3.77 2.04-.18 4.08.03 5.98.78 2.41.95 3.96 2.76 4.7 5.25.21.7.29.79.91.41.49-.31.96-.76 1.27-1.25.88-1.39 1.16-3 1.36-4.6.38-3.06 1.31-5.92 3.08-8.44 2.66-3.79 6.42-5.59 10.98-5.22 5.67.46 9.78 3.51 12.43 8.5 1.44 2.7 2.06 5.63 1.89 8.67-.26 4.58-2.27 8.13-6.53 10.16-1.42.68-2.93.99-4.53.98-1.84-.01-3.69.08-5.53.22-.75.06-1.5.34-2.22.61-.76.29-1.32.83-1.62 1.62-.16.42-.12.74.19 1.07 1.72 1.86 2.51 4.07 2.39 6.58-.03.67-.21 1.34-.4 1.99-.21.72-.5 1.41-.75 2.12-.69 1.95-2.06 3.23-3.91 4.06-2.1.95-4.22.76-6.37.19-.41-.11-.83-.22-1.28-.34Zm-2.33-24.63s-.03.07-.02.12c.68 3.15 2.25 5.75 4.73 7.84 1.33 1.12 2.74 1.36 4.36.91.4-.11.63-.29.75-.71.16-.54.38-1.09.68-1.57.83-1.35 2.19-1.97 3.66-2.22 1.58-.26 3.2-.39 4.81-.45 2.51-.1 4.92-.48 7.11-1.79 1.94-1.16 3.36-2.75 3.74-5.06.61-3.76-.14-7.28-2.08-10.52-.85-1.43-1.99-2.63-3.44-3.57-2.37-1.53-4.95-2.23-7.72-1.93-3.84.42-6.47 2.64-8.08 6.06-.87 1.84-1.12 3.87-1.54 5.85-.39 1.83-.77 3.68-1.68 5.36-.68 1.25-1.66 2.09-3.15 2.05-.7-.02-1.39-.24-2.13-.37Zm-.71-2.8c-.15-.2-.23-.34-.34-.46-1.72-1.95-3.9-2.64-6.44-2.26-2.8.41-4.94 3.22-4.17 6.39.47 1.94 1.32 3.73 2.49 5.31 1.38 1.85 2.87 3.62 4.34 5.41 1.85 2.25 3.85 4.36 6.19 6.11 1.46 1.09 3.05 1.97 4.87 2.29 1.7.29 3.28-.03 4.63-1.19 2.46-2.1 1.29-5.93-.3-7.46-.11-.1-.4-.15-.52-.08-1.38.85-2.8.59-4.13.01-3.2-1.38-5.41-3.81-6.88-6.94-.68-1.45-1.17-2.97-.93-4.57.13-.91-.25-2.15 1.2-2.57ZM27.68 48.91c-1.03.76-2.12 1.45-2.54 2.72-.18.54-.22 1.16-.15 1.73.27 2.32 2.61 4.33 4.68 4.81 1.14.26 2.17-.07 2.9-1.05.2-.27.37-.58.61-.82.35-.34.25-.57-.04-.89-1.21-1.3-2.41-2.59-3.56-3.94-.67-.78-1.23-1.66-1.89-2.57ZM15.79 59.33s-.09.1-.14.15c.51.81 1.01 1.63 1.54 2.43.07.11.26.15.41.19.39.11.8.15 1.16.31.52.23 1.01.55 1.52.8 4.05 2.02 8.33 3.45 12.57 4.99.16.06.38.11.52.05.87-.39 1.55-1.03 2.23-1.66-6.87-1.8-13.22-4.85-19.8-7.26Zm9.6-21.03c0 .22-.03.44 0 .65.38 2.58 1.23 5 2.57 7.24.2.33.55.57.83.87.12.13.29.28.29.42 0 .6.33 1.01.68 1.42.76.91 1.53 1.8 2.28 2.72 2.73 3.37 6.08 5.9 10.15 7.44 1.5.57 2.99 1.1 4.61 1.16 1.36.05 2.65-.15 3.72-1.08.2-.17.35-.39.59-.68-.22.01-.28 0-.33.02-2.61 1.27-5.26 1.1-7.86.03-2.13-.88-3.93-2.27-5.6-3.84-3.01-2.84-5.68-5.97-8.27-9.19-1.7-2.11-2.93-4.48-3.67-7.17Zm-10.9 17.91c.2.62.3 1.08.51 1.48.13.25.38.51.64.62.61.26 1.25.42 1.88.62 3.92 1.25 7.83 2.53 11.77 3.74 2.43.74 4.89 1.36 7.34 2.05.39.11.54-.08.66-.36.16-.36-.09-.46-.37-.56-1.81-.62-3.62-1.23-5.42-1.89-2.85-1.05-5.67-2.22-8.55-3.21-2.25-.77-4.56-1.35-6.85-2.02-.49-.14-.97-.3-1.61-.49Zm9.61 1.24.12-.12c-.66-.76-.76-2.07-2.2-2.04-.14 0-.28-.07-.41-.11-2.23-.73-4.46-1.45-6.68-2.18-.31-.1-.51-.04-.52.29-.02.52 0 1.03.02 1.55 0 .31.17.42.49.41.34-.02.69-.03 1.02.05 1.38.3 2.76.61 4.12.97 1.36.36 2.7.79 4.05 1.19Zm-8.73-7.51c-.24.65-.45 1.16-.6 1.69-.04.13.12.43.24.46 1.97.52 3.95 1.02 5.93 1.5.54.13 1.1.17 1.66.26 0-.32-.03-.53 0-.74.07-.46-.14-.6-.56-.7-.85-.2-1.7-.44-2.51-.75-1.37-.52-2.71-1.11-4.16-1.71Zm3.48-3.27c-1.11.64-1.98 1.44-2.86 2.49 2.37.7 4.61 1.36 6.92 2.04.11-.24.27-.57.44-.93-.14-.08-.25-.13-.35-.19-.9-.48-1.81-.93-2.68-1.45-.72-.43-1.3-1.01-1.46-1.96Zm6.53 1.48c-.05-.08-.07-.14-.11-.16-1.1-.83-2.25-1.59-3.07-2.74-.05-.07-.21-.14-.27-.11-.87.4-1.73.81-2.59 1.22 0 .07-.02.14-.03.21.49.4.94.9 1.49 1.18 1 .51 2.06.89 3.1 1.32.1.04.27.04.35-.02.38-.28.75-.59 1.12-.9Zm4.11 21.03c-3.89-1.36-7.37-3.5-10.86-5.62 3.01 3.05 6.26 5.62 10.86 5.62Zm9.37-8.05c-.51-.18-.99-.38-1.48-.53-.89-.27-1.8-.47-2.68-.76-.83-.28-1.5-.05-2.16.56.27.12.5.24.74.32 1.32.45 2.64.89 3.97 1.32 1.15.38 1.16.37 1.59-.75.01-.03 0-.07.02-.16ZM26.78 47.52c-.48-1.2-.9-2.26-1.33-3.31-.03-.08-.24-.17-.33-.15-.77.23-1.54.49-2.4.77 1.15 1.29 2.58 1.91 4.06 2.69Zm11.16 11.8s.03-.1.04-.15c-.81-.53-1.61-1.06-2.42-1.59l-.78 1.3c1.09.16 2.12.3 3.16.45Z"/><path fill="#fff" d="M58.2 37.26c0-.18 0-.36.03-.53.07-.33.26-.51.62-.38.07.02.14.03.2.07.84.56 1.57.24 2.27-.28 1.44-1.08 2.53-2.42 3.13-4.14.52-1.49.15-2.65-1.11-3.57-.68-.5-.81-1.32-.33-2.04.42-.64 1.23-.78 1.94-.35 1.97 1.21 2.95 3.23 2.45 5.51-.73 3.34-2.72 5.74-5.87 7.13-.83.37-1.67.33-2.49-.07-.57-.28-.93-.67-.83-1.35Z"/></svg>