<svg xmlns="http://www.w3.org/2000/svg" viewBox="0 0 82 82"><circle cx="41" cy="41" r="41" fill="none"/><path fill="#fff" d="M50.14 61.45c0 1.32.16 2.59-.03 3.81-.69 4.55-3.65 7.81-8.14 8.5-4.45.69-8.56-1.94-9.65-6.83-.51-2.31-.63-5.4.33-8.04-.9-.05-1.79-.14-2.68-.12-1.25.01-2.5.13-3.76.15-1.42.02-2.84.06-4.25-.04-1.1-.08-1.54-.59-1.46-1.68.18-2.52.43-5.03.69-7.54.16-1.48.4-2.96.6-4.43.01-.1-.01-.21-.02-.38-.17.03-.31.04-.44.07-3.94.8-7.56.11-10.52-2.7-3.07-2.91-3.1-6.7-.74-10.07 1.76-2.51 4.28-3.88 7.29-4.37 1.63-.27 3.23-.19 4.8.32.13.04.28.04.5.07-.2-.79-.41-1.5-.56-2.23-.55-2.8-1.09-5.6-1.62-8.4-.16-.87-.28-1.75-.38-2.62-.13-1.07.38-1.68 1.44-1.7 3.02-.06 6.05-.11 9.07-.12.75 0 1.49.19 2.24.3.65.1 1.15.45 1.6.92.11.11.4.2.52.13.3-.17.55-.21.78.07.24.29.44.61.18 1-.2.31-.42.61-.6.92-.69 1.18-.47 2.35.39 3.27 2.02 2.15 4.52 3.34 7.53 3.21 1.74-.07 3.24-1.66 3.35-3.4.09-1.45-.05-2.87-.49-4.26-.19-.59-.28-1.25.32-1.67.32-.22.77-.37 1.16-.38 3.13-.08 6.27-.09 9.4-.17 1.55-.04 3.09-.16 4.64-.27 1.35-.09 1.81.24 2.03 1.58.81 4.92.88 9.87.66 14.83-.05.99-.13 2-.39 2.95-.22.81-.74 1.54-1.11 2.31-.09.2-.17.44-.15.64.1.68-.13 1.23-.68 1.58-.5.32-1.05.22-1.56-.1-1.55-.97-3.15-1.83-5-2.1-1.59-.23-2.58.24-3.33 1.65-.54 1-.73 2.07-.65 3.2.14 1.91.64 3.7 1.66 5.32.18.28.49.47.75.71.16.15.36.27.48.44.7 1.02 1.74 1.52 2.94 1.18.85-.24 1.66-.67 2.44-1.1.63-.34 1.17-.83 1.77-1.23.73-.49 1.24-.26 1.58.55.57 1.4.65 2.85.68 4.34.04 2.08.2 4.16.19 6.24 0 .98-.2 1.98-.44 2.94-.29 1.18-1.15 1.95-2.22 2.47-1.21.6-2.53.88-3.86.84-2.15-.07-4.3-.29-6.44-.46-.27-.02-.54-.07-.85-.12Zm11.17-41.51c-.2.15-.28.21-.37.28-4.27 3.5-8.18 7.38-11.97 11.39-5.09 5.38-10.06 10.88-15.46 15.97-3.01 2.84-6.22 5.43-9.62 7.78-.19.13-.33.34-.51.53h4.2c.49 0 1.01.04 1.18-.61.03-.11.18-.18.27-.27 1.77-1.67 3.57-3.31 5.3-5.01 4.94-4.84 9.63-9.91 14.25-15.06.86-.95 1.92-1.74 2.95-2.52.44-.33 1.04-.44 1.56-.67.21-.09.45-.18.62-.33.78-.73 1.57-1.46 2.31-2.22 1.75-1.79 3.48-3.61 5.2-5.42.14-.15.27-.39.26-.58-.03-1.04-.11-2.08-.18-3.25ZM23.67 48.89c.05.03.11.05.16.08 7.92-7.44 15.44-15.25 22.42-23.66-.13-.03-.17-.05-.2-.04-1.29.59-2.64.77-4.04.62-.13-.01-.31.02-.41.1-1.08.89-2.19 1.75-3.22 2.69-2.64 2.43-4.89 5.21-7.12 8.01-2.03 2.55-4.07 5.11-6.51 7.29-.85.76-1.23 1.5-1.11 2.6.08.76.02 1.53.02 2.3Zm-.12-5.93c2.77-3.39 5.46-6.68 8.17-9.97 1.72-2.09 3.44-4.18 5.21-6.23.52-.6 1.21-1.04 1.83-1.55-.54-.64-1.34-.79-1.92-.26-1.7 1.55-3.46 3.05-5.03 4.73-3.45 3.69-6.8 7.47-10.19 11.21-.15.16-.29.4-.47.45-.35.09-.73.06-1.1.08.05-.3.01-.65.16-.89.38-.59.84-1.12 1.27-1.67 3.08-4.07 6.17-8.14 9.83-11.72.16-.16.31-.33.46-.5-.32.13-.61.31-.84.54-1.48 1.46-2.93 2.95-4.42 4.41-1.9 1.87-3.64 3.86-5.16 6.04-.93 1.33-1.83 2.68-2.75 4.01-.16.24-.32.5-.71.36-.51-.19-.63-.42-.34-.99.56-1.1 1.08-2.23 1.76-3.25 1.2-1.81 2.5-3.55 3.75-5.33.13-.19.45-.44.08-.63-.3-.16-.68-.5-1.04-.14-1.34 1.35-2.7 2.67-3.96 4.09-1.37 1.54-2.63 3.18-3.94 4.78-.32.39-.25.66.22.82.61.21 1.21.45 1.83.61 1.46.38 2.91.56 4.37-.12.56-.26 1.24-.27 1.79.14.39.29.73.63 1.13.98Zm37.58-25.18c-.05-.54-.09-1.17-.18-1.78-.03-.23-.08-.5-.48-.44-1.13.16-2.26.28-3.39.38-.44.04-.74.19-.98.58-.3.49-.68.92-1.02 1.37-1.88 2.48-3.73 4.99-5.66 7.43-1.46 1.85-2.98 3.66-4.52 5.43-1.32 1.51-2.71 2.95-4.08 4.42-1.19 1.28-2.37 2.57-3.59 3.83-.52.54-1.14.99-1.7 1.49-2.77 2.52-5.52 5.05-8.31 7.55-.96.86-1.93 1.73-3.01 2.43-.57.38-.7.72-.66 1.33.04.65-.04 1.31-.08 2.06.2-.12.36-.18.47-.28 2.5-2.42 5.08-4.78 7.47-7.3 2.62-2.77 5.07-5.7 7.61-8.55.82-.92 1.69-1.8 2.5-2.73 2.77-3.19 5.63-6.28 8.76-9.12 3.05-2.77 6.21-5.39 9.7-7.59.32-.2.69-.32 1.16-.53ZM48.59 38.49c-5.7 6.03-11.5 11.91-17.95 17.12.58.06 1.12.03 1.64.07.79.06 1.43-.16 2.1-.62 4.12-2.84 8.16-5.75 11.66-9.37.85-.89 1.99-1.5 2.98-2.26.11-.08.22-.3.18-.42-.43-1.46-.75-2.92-.61-4.53ZM34.85 64.67c.26-.16.42-.24.56-.35 1.72-1.27 3.46-2.51 5.15-3.82 4.38-3.4 8.74-6.82 13.11-10.23.87-.68.88-.67-.04-1.23-.95-.58-.96-.59-1.8.2-2.77 2.59-5.81 4.81-8.99 6.86-2.54 1.64-5.08 3.26-7.61 4.91-.17.11-.35.36-.36.55-.04.99-.02 1.99-.02 3.11Zm.33-5.3c5.43-4.01 11.28-7.46 16.08-12.24-.53-.88-1.05-1.74-1.58-2.62-.73 1.33-1.69 2.37-2.81 3.26-3.69 2.94-7.5 5.72-11.52 8.2-.15.09-.28.19-.45.31 1.13.99.82 2.01.28 3.09ZM60.7 48.35c-.61.31-1.04.6-1.52.75-.71.23-1.26.64-1.8 1.13-1.16 1.05-2.29 2.15-3.56 3.06-3.67 2.63-7.37 5.22-11.1 7.75-2.36 1.6-4.81 3.07-7.22 4.61-.17.11-.43.34-.4.46.17.65.42 1.28.67 2.03.65-.47 1.22-.89 1.8-1.3 1.71-1.22 3.42-2.44 5.12-3.67 1.19-.86 2.37-1.75 3.54-2.63.11-.08.23-.21.25-.33.21-1.24 1.02-1.5 2.07-1.2.28.08.59.08.95.13-.14-.74.32-1.06.7-1.43 2.61-2.6 5.43-4.92 8.55-6.89.59-.37 1.18-.88 1.94-.37v-2.09ZM32.55 19.43c-.62.56-1.25 1.15-1.9 1.72-1.77 1.56-3.54 3.12-5.33 4.65-.52.44-.72.89-.54 1.57.2.78.31 1.58.47 2.45 1.51-1.45 2.89-2.83 4.32-4.16 1.43-1.32 2.91-2.58 4.36-3.86-.47-.8-.95-1.64-1.38-2.37Zm7.04 51.32c.06-.63.41-.85.98-.8.16.01.36-.09.51-.19.52-.34 1.1-.64 1.54-1.07 1.39-1.35 2.73-2.74 4.07-4.12.56-.57.62-1.45.18-2.19-.39.33-.75.71-1.18.98-1.36.88-2.75 1.71-4.12 2.57-1.53.96-3.04 1.94-4.56 2.91-.2.13-.47.31-.16.55.8.63 1.68 1.1 2.74 1.35Zm-6.75-54.34c-.46-.04-.92-.07-1.37-.13-.62-.09-1.2-.1-1.54.58-.06.12-.21.2-.33.29-1.79 1.53-3.59 3.05-5.38 4.59-.12.1-.22.31-.2.46.08.75.19 1.49.31 2.24.02.13.1.33.19.34.11.02.28-.08.37-.17 1.06-1.11 2.1-2.22 3.15-3.33 1.1-1.16 2.2-2.33 3.33-3.47.24-.24.56-.48.87-.55.51-.1.59-.4.59-.86Zm27.97 34.95c-3.26 2.84-7.04 4.92-10.24 7.79 1.43.1 2.84.15 4.24.16.14 0 .31-.22.43-.37.58-.76 1.11-1.56 1.73-2.29 1.13-1.33 2.31-2.63 3.49-3.92.36-.4.57-.8.35-1.37Zm-44.89-20.1c-1.75.47-3.13 1.44-3.9 3.07-.68 1.44-.79 2.95-.02 4.52 1.24-2.63 2.93-4.92 3.91-7.59Zm45.7-4.75c-.08-.03-.15-.06-.23-.1-1.81 1.7-3.62 3.4-5.5 5.17.52.13.94.17 1.29.35.58.3 1.02.09 1.47-.24.19-.14.38-.29.56-.45.91-.75 1.42-1.78 1.87-2.83.26-.6.36-1.27.53-1.9Zm-12.65-4.9c.07.03.14.07.21.1 1.42-1.85 2.84-3.7 4.29-5.58h-4.14c.21 1.91.27 3.71-.36 5.48Zm-25.31-1.78c1.28-1.23 2.58-2.48 3.88-3.74h-4.36c.17 1.33.33 2.6.48 3.74Zm37.3 35.14c-1.7 1.17-3.06 2.67-4.49 4.31 1.41-.02 2.62-.14 3.72-.76.15-.08.3-.24.36-.4.4-1 .47-2.05.41-3.15Zm-42.7-24.19c-1.62 3.16-4.02 5.81-5.43 9.06 1.88-3.33 4.73-5.92 6.98-9.06h-1.55Zm23.29 40.19c1.92-.34 3.33-1.42 4.39-3.03-1.47 1.02-2.93 2.02-4.39 3.03Zm17.83-38.26c.48.18.83.31 1.19.45.1-.52.18-.94.26-1.35-.04-.03-.08-.06-.12-.1-.39.29-.79.59-1.33 1Z"/></svg>