<svg xmlns="http://www.w3.org/2000/svg" viewBox="0 0 82 82"><g id="Layer_5"><circle cx="41" cy="41" r="41" fill="none"/><path fill="#fff" d="M56.67 60c-.16.96-.58 1.7-1.33 2.26-.11.08-.13.41-.07.59.43 1.27.94 2.52 1.35 3.8.34 1.06.02 1.6-1.06 1.77-2.52.39-5.06.62-7.62.47-.29-.02-.46.01-.6.29-.21.43-.6.62-1.06.61-1.94-.07-3.87-.16-5.81-.26-.54-.03-1.07-.08-1.6-.17-.46-.07-.9-.24-1.35-.31-.85-.13-1.7-.26-2.55-.31-1.79-.1-3.59-.11-5.38-.24-1.21-.09-2.42-.28-3.62-.52-.94-.19-1.28-1.04-.72-1.8.96-1.31 1.54-2.79 2.11-4.28.17-.45.38-.88.6-1.36-.29-.22-.53-.53-.92-.03-.33.42-.8.31-1.26-.25-1.98.61-4.03.68-6.06.36-1.41-.22-2.78-.66-4.16-1.03-.58-.15-.85-.62-.84-1.18 0-4.55.15-9.09 1.41-13.51.53-1.86 1.28-3.62 2.56-5.11 1.67-1.93 3.8-2.66 6.31-2.44.09 0 .18.01.27 0 .03 0 .06-.03.03-.01.32-2.19.55-4.34.96-6.47 1.04-5.35 2.57-10.54 5.77-15.06 1.85-2.61 4.11-4.76 7.19-5.87 2.07-.75 4.17-1.23 6.35-.42 1.78.66 3.13 1.86 4.26 3.35 2.01 2.66 3.22 5.7 4.2 8.85 1.19 3.83 1.91 7.76 2.48 11.73.12.83.22 1.67.31 2.51.03.32.19.49.5.52 4.71.54 7.62 3.36 9.47 7.49 1.51 3.36 1.85 6.88 1.12 10.48-.38 1.9-1.25 3.6-2.77 4.88-2 1.68-4.28 1.95-6.73 1.25-.56-.16-1.11-.37-1.72-.58ZM17.9 47.47c-.06.16-.16.32-.18.49-.07.65-.09 1.31-.17 1.96-.05.38.13.49.45.49h1.62c1.56 0 3.12 0 4.69-.02.17 0 .47-.17.49-.3.06-.41.02-.84.02-1.29-.83-.05-1.62-.08-2.4-.14-1.22-.09-2.43-.16-3.65-.29-.8-.09-.8-.13-.87-.92h7.05c0-.36-.01-.63 0-.89.02-.34-.12-.48-.46-.49-1.86-.06-3.72-.14-5.58-.23-.38-.02-.6.06-.67.48-.06.39-.21.76-.32 1.13Zm31.25-29.08c-.22.1-.32.14-.41.19-2 1.15-4.19 1.71-6.47 1.81-2.92.12-5.81-.09-8.54-1.3-.32-.14-.48-.1-.68.23-1.82 2.99-2.99 6.23-3.72 9.64-.62 2.88-1.17 5.77-1.28 8.72-.11 2.76-.18 5.53-.13 8.29.03 2.04.28 4.08.42 6.12.02.27.1.36.37.4.78.11 1.55.27 2.33.41 2.77.48 5.54.98 8.32 1.43 3.14.51 6.3.41 9.45.14 1.86-.16 3.7-.46 5.55-.68.31-.04.33-.18.33-.43-.01-.9.02-1.8 0-2.69-.09-2.73-.11-5.46-.33-8.17-.21-2.64-.59-5.28-.97-7.9-.57-4-1.39-7.95-2.64-11.8-.48-1.46-1.04-2.89-1.58-4.4ZM28.47 54.4c-.17 1.45-.33 2.86-.5 4.32.01 0 .08.06.16.1.24.12.48.24.73.35 2 .86 4.09 1.45 6.26 1.69 3.84.43 7.68.67 11.55.45 2.76-.15 5.38-.81 7.91-1.86.31-.13.35-.32.32-.63-.07-.8-.1-1.61-.14-2.41 0-.1-.03-.2-.05-.38-.63.25-1.2.51-1.78.72-2.24.79-4.56.79-6.87.59-3.23-.27-6.46-.66-9.68-1.02-2.59-.28-5.14-.74-7.54-1.83-.12-.06-.26-.07-.36-.1Zm-.67 11.48s.11.05.17.06c2.75.15 5.51.3 8.27.45.3.02.42-.12.44-.4.04-.59.05-1.18.12-1.77.06-.52-.17-.71-.64-.77-2.48-.33-4.87-.98-7.1-2.16-.06-.03-.13-.03-.15-.03-.37 1.55-.73 3.08-1.1 4.62Zm11.38-2.09v2.52c0 .55.3.8.83.83.79.05 1.57.14 2.36.16.89.03 1.78 0 2.71 0 0-.94-.02-1.84 0-2.73.01-.38-.13-.48-.49-.5-1.75-.08-3.5-.19-5.42-.3Zm14.72 2.59c0-.12.05-.24.01-.33-.34-.81-.68-1.62-1.04-2.41-.03-.08-.21-.14-.31-.13-1.51.19-3.02.4-4.53.58-.3.04-.39.16-.4.45-.02.73-.04 1.47-.11 2.2-.04.48.18.55.57.49 1.91-.28 3.83-.56 5.8-.84Zm11.45-18.32c-.16-.64-.32-1.21-.45-1.78-.09-.39-.3-.47-.67-.38-.24.06-.5.06-.74.03-1.82-.19-3.63-.38-5.45-.58-.34-.04-.51.05-.48.43.03.37.02.75.05 1.13.09.98.1 1.01 1.09 1.03 2.02.05 4.05.08 6.07.12h.58Zm-40.27-5.08c-1.68-.16-3.25-.3-4.81-.44-.15-.01-.4 0-.45.08-.38.67-.73 1.37-1.09 2.06.03.06.05.12.08.18 2.01-.07 4.01-.15 6.1-.23.05-.5.1-1.04.16-1.65Zm32.57 6.83c0 .2.01.4 0 .59-.03.35.1.47.47.45 1.43-.08 2.87-.13 4.3-.2.93-.05 1.86-.13 2.79-.2.23-.02.54-.03.44-.37-.07-.23-.28-.44-.47-.62-.07-.06-.24-.01-.37 0-2.03.06-4.05-.13-6.05-.48-1.08-.19-1.07-.21-1.1.84Zm7.73 4.96c-2.64-.2-5.23-.4-7.86-.61 0 .33.05.68-.01 1-.09.45.05.54.49.55 1.93.08 3.86.17 5.79.31 1.29.09 1.29.13 1.57-1.13.02-.07.02-.13.02-.14ZM36.76 14.6s.03.08.05.12h9.99l.1-.1c-.33-.26-.65-.71-1-.74-2.46-.2-4.93-.32-7.4-.46-.17 0-.37.05-.5.15-.43.32-.83.68-1.24 1.02Zm29.02 37.51c-2.58-.14-5.14-.3-7.7-.41-.6-.03-.34.51-.39.81-.07.38.13.5.49.5h6.88c.62 0 .71-.11.71-.91ZM21.99 53v.14c.77-.03 1.54-.08 2.31-.1.47-.01.41-.35.44-.65.04-.36-.22-.35-.46-.36-.46-.02-.93-.03-1.39-.07-1.64-.12-3.28-.25-4.92-.38-.36-.03-.62.06-.56.49.05.37-.25.94.5.94h4.08Zm-4.68 2.35c2.33.05 4.62.1 6.91.14.28 0 .53 0 .52-.41 0-.38-.2-.43-.5-.46-1.12-.08-2.25-.19-3.37-.28-1.17-.08-2.35-.15-3.55-.22v1.22Zm4.47 2.68c.93-.06 1.86-.1 2.79-.18.13-.01.25-.18.38-.27-.11-.13-.2-.29-.34-.39-.09-.07-.24-.06-.36-.07-2.15-.15-4.29-.31-6.44-.44-.17-.01-.45.13-.51.28-.11.25.02.44.34.53 1.36.4 2.73.56 4.14.55Zm3.42-18.96c-1.78.28-3.21.95-4.36 2.26 1.44.08 2.81.15 4.25.23.04-.83.07-1.61.11-2.49Zm9.91-22.38h.7c2.9.04 5.81.02 8.71.15 1.02.05 1.95-.1 2.89-.39.2-.06.36-.23.54-.35l-.09-.2c-.43.07-.86.19-1.29.21-1.91.1-3.83.26-5.74.22-1.5-.03-2.99-.29-4.48-.49-.66-.09-.98.05-1.24.85Zm28.84 27.58c.03-.07.07-.14.1-.21-.24-.15-.47-.4-.72-.42-1.77-.14-3.54-.22-5.3-.33-.33-.02-.6-.05-.57.44.04.71.09.83.61.8 1.18-.06 2.36-.11 3.54-.17.78-.04 1.56-.07 2.34-.11Zm-6.53 12.71c-.11.74-.08.81.29.88l2.16.42c1.04.2 2.07.24 3.07-.16.18-.07.33-.2.49-.3-.01-.05-.03-.11-.04-.16-1.98-.22-3.95-.45-5.96-.67Zm-.02-16.05v1.51c1.7-.13 3.36-.26 5.02-.39.01-.07.03-.14.04-.21-.19-.12-.37-.33-.58-.36-1.48-.2-2.97-.37-4.49-.55ZM39.96 18.02v-.16c-1.8-.09-3.59-.19-5.39-.26-.16 0-.33.09-.49.14 0 .05.02.11.03.16 1.94.36 3.89.39 5.85.12Zm17.29 20.47c-.22.89-.17 1.1.28 1.14.66.06 1.32.09 1.98.12.12 0 .25-.04.37-.06l.03-.18c-.87-.33-1.74-.67-2.66-1.02ZM43.48 12.24v-.15c-.86-.15-1.74-.56-2.55.15h2.56Z"/><path fill="#fff" d="M42.08 40.23c-1.36.17-2.71.1-4.04-.28-3.69-1.06-6.25-4.7-5.87-8.51.23-2.32 1.47-4.13 3.29-5.54 5.62-4.34 12.35-.75 13.85 4.36 1.09 3.72-.53 7.43-4.16 9.21-.96.47-1.91 1.03-3.07.76Zm-7.56-7.38c.19.54.35.98.49 1.43.13.4.4.54.82.53 1.42-.02 2.84-.05 4.25 0 1.18.04 2.36.15 3.53.32.66.09 1.35.26 1.72.95.03.05.32.03.4-.04 1.19-1.26 1.63-2.74 1.31-4.46-.08-.4-.21-.38-.53-.33-.47.08-.96.13-1.43.1-1.38-.1-2.75-.25-4.13-.38-1.75-.17-3.5-.31-5.25-.51-.81-.09-.81-.14-1.04.63-.02.07-.03.14-.06.21-.17.44-.03.64.45.64.3 0 .61.05.91.06 1.63.04 3.26.08 4.9.1 1.59.02 3.19.02 4.78.03.16 0 .36 0 .47.08.19.16.39.38.43.61.03.13-.2.39-.37.47-.91.46-1.89.56-2.88.47-2.41-.22-4.82-.48-7.22-.73-.48-.05-.95-.11-1.55-.17Zm11.7-3.2c-.1-.39-.33-.63-.75-.69-2.44-.39-4.88-.78-7.32-1.16-.28-.04-.62-.15-.84-.04-.9.41-1.51 1.14-2.1 2 3.74-.66 7.37-.13 11.02-.1Zm-9.93 6.17-.09.24c.08.11.15.22.24.32 1.34 1.46 3.1 2.07 4.99 2.39.11.02.25-.13.37-.21.38-.28.72-.64 1.13-.85.54-.28 1.14-.45 1.72-.67 0-.04-.01-.09-.02-.13-2.78-.36-5.56-.73-8.34-1.09Zm7.84-8.36c-.87-1.09-4.37-1.27-5.14-.44 1.71.15 3.38.29 5.14.44ZM44.63 47.2c0 1.52-.79 2.63-2.24 3.12-1.33.45-2.61.38-3.83-.33-1.64-.95-2.11-2.82-1.16-4.46.49-.85 1.14-1.46 2.12-1.69.21-.05.44-.18.58-.35.29-.35.65-.43 1.06-.36 1.97.32 3.47 2.08 3.48 4.07Zm-3.83 1.4c.21-.06.6-.12.96-.27.64-.28.91-.88.76-1.52-.21-.88-1.5-1.88-2.41-1.86-.09 0-.23.06-.27.13-.28.45-.61.89-.8 1.38-.54 1.42.49 2.1 1.77 2.14Z"/></g></svg>