<svg xmlns="http://www.w3.org/2000/svg" viewBox="0 0 82 82"><circle cx="41" cy="41" r="41" fill="none"/><path fill="#fff" d="M28.15 48.1c-1.14.09-2.2.15-3.25.25-2.38.22-4.75.46-7.13.7-.36.04-.62-.05-.7-.45-.09-.42-.13-.83.39-.98 1.07-.3 2.14-.6 3.22-.83 2.15-.46 4.32-.89 6.48-1.31 1.09-.21 1.07-.2 1.11-1.32.09-2.54.23-5.07.28-7.61.05-2.39 0-4.78 0-7.17 0-.11-.02-.22-.04-.37-1.24 0-2.47-.05-3.69.01-1.52.07-3.04.21-4.56.36-.35.03-.7.19-1.02.34-.45.21-.79.16-1.07-.25-.28-.41-.26-.9.18-1.13.77-.41 1.57-.8 2.4-1.04 2.02-.58 4.12-.68 6.2-.8.48-.03.96-.07 1.53-.11-.1-1.24-.19-2.45-.29-3.66l-.18-.03c-.15.19-.29.38-.44.58-1.08 1.4-2.42 2.3-4.25 2.31-2.49.01-4.41-2.44-3.67-4.81.49-1.55 1.34-2.95 2.66-3.93 2.27-1.68 5.29-.6 6.1 2.1.12.39.14.73.75.64.25-.04.67.33.82.62.39.72.8 1.47.97 2.26.25 1.12.32 2.29.43 3.45.03.37.14.47.51.45 2.7-.13 5.41-.19 8.1-.36 2.94-.18 5.88-.46 8.83-.68.33-.03.44-.14.45-.49.06-2.24.14-4.48.22-6.71.04-1.11.07-2.22.17-3.33.08-.91.73-1.3 1.59-1.04.41.12.61.42.66.79.09.66.15 1.32.19 1.98.14 2.38.28 4.77.41 7.15.02.36 0 .72 0 1.12.54-.04 1.07-.09 1.59-.12 2.22-.16 4.44-.3 6.65.05 1.25.2 2.46.56 3.51 1.3.2.14.4.3.56.49.32.37.39.8.15 1.24-.23.43-.72.64-1.23.56-1.39-.23-2.77-.58-4.17-.65-2.2-.1-4.41-.01-6.61 0-.13 0-.25.05-.31.06.05 2.38.11 4.71.15 7.05.05 2.62.1 5.24.12 7.86 0 .44.21.49.55.49 1.81 0 3.62-.03 5.43.03 2.72.09 5.44.22 8.15.39.98.06 1.41.71 1.2 1.6-.12.52-.46.82-.97.87-1.19.12-2.38.22-3.57.29-3.4.18-6.79.35-10.19.51-.44.02-.61.18-.62.63-.03 2.99-.05 5.97-.11 8.96-.05 2.34-.13 4.68-.22 7.01-.02.66-.38 1.01-.98 1.03-.62.02-.97-.26-1.03-.95-.07-.88-.09-1.76-.13-2.63-.15-3.48-.29-6.96-.44-10.44-.04-.94-.12-1.89-.13-2.83 0-.45-.12-.59-.6-.57-3.83.19-7.66.34-11.48.52-2.12.1-4.24.25-6.36.36-.37.02-.46.15-.46.51.05 2.75-.04 5.52.14 8.26.17 2.66.61 5.3.93 7.95.03.21.09.42.11.64.05.68-.36 1.2-1.06 1.34-.71.15-1.16-.08-1.33-.83-.32-1.42-.67-2.85-.83-4.29-.33-2.95-.57-5.91-.78-8.87-.09-1.29-.03-2.59-.04-3.88v-.62Zm2.89-3.34h.23c1.86-.21 3.72-.47 5.58-.63 3.85-.33 7.7-.59 11.55-.89.3-.02.59-.08.88-.09.34-.02.38-.2.37-.5-.14-4.76-.27-9.51-.39-14.27 0-.35-.15-.43-.46-.4-1.01.1-2.01.24-3.02.29-3.63.19-7.25.35-10.88.52-1.04.05-2.09.07-3.13.08-.25 0-.35.07-.37.33-.09 1.46-.23 2.91-.27 4.37-.07 2.67-.08 5.34-.1 8.01-.01 1.04 0 2.09 0 3.18Zm-9.53-23.3c.13 1.11 1.08 1.97 2.07 1.83 1.36-.19 2.6-1.44 2.77-2.81.08-.63-.37-1.53-.91-1.81-.8-.41-1.35-.32-1.95.34-.49.54-.97 1.08-1.43 1.64-.21.25-.36.54-.54.8Z"/><path fill="#fff" d="M61.43 57.23c-.9 1.6-1.75 3.12-2.59 4.63-.16.29-.28.6-.43.89-.17.33-.34.7-.78.64-.49-.07-.9-.35-.99-.85-.07-.37-.03-.8.07-1.17.48-1.87 1.42-3.53 2.56-5.07.31-.42.25-.66-.14-.93-1.03-.72-2.06-1.46-3.09-2.18-.58-.41-.79-.84-.63-1.38.16-.56.52-.81 1.05-.57.92.41 1.8.9 2.69 1.38.48.26.94.57 1.37.9.34.26.5.15.7-.16.53-.8 1.04-1.62 1.63-2.37.37-.47.84-.89 1.35-1.21.52-.33 1.13-.17 1.53.27.4.43.46.94.15 1.51-.1.19-.22.39-.38.51-.98.73-1.53 1.81-2.26 2.75-.25.32-.22.5.13.75.63.45 1.24.94 1.8 1.47.26.24.42.59.57.92.19.4.15.8-.19 1.14-.34.34-.73.37-1.15.21-.96-.36-1.77-.97-2.51-1.67-.11-.1-.21-.2-.46-.43ZM42.11 61.02c-2.5.19-4.83-2.11-4.54-4.98.19-1.86.96-3.33 2.81-4.04.12-.05.24-.12.34-.2.92-.85 2-.85 3.06-.43 2.06.81 3.4 2.25 3.56 4.54.18 2.68-1.94 4.95-4.68 5.12-.18.01-.36 0-.55 0Zm.23-7.05c-.27.02-.5.06-.73.04-.75-.06-1.17.32-1.39 1-.02.05-.04.09-.06.14-.48 1.13-.06 2.44.96 3.03 1.02.59 2.36.27 3.09-.74.31-.43.64-.88.48-1.45-.42-1.43-.91-2.22-2.35-2.02ZM16.7 59.11c-.02-1.47.28-2.69 1.15-3.71.49-.57 1.04-1.07 1.89-1.05.15 0 .35-.18.44-.33.39-.61.89-.8 1.61-.65 1.76.37 3.34 1.97 3.74 3.86.26 1.21.24 2.39-.17 3.57-1.17 3.35-5.36 3.89-7.34 1.8-.96-1.01-1.36-2.26-1.32-3.49Zm3.38-3.73c-.26.44-.54.88-.77 1.33-.6 1.19-.58 2.4.02 3.58.58 1.15 1.51 1.39 2.65.77.96-.52 1.31-1.39 1.24-2.36-.1-1.24-.55-2.36-1.86-2.86-.4-.15-.8-.29-1.27-.46ZM41.76 38.16c-.71.78-1.35 1.51-2.03 2.21-.45.47-.91.5-1.37.18-.5-.36-.63-.72-.29-1.34.48-.84 1.03-1.66 1.61-2.43.27-.36.23-.55-.06-.82-.72-.69-1.42-1.39-2.12-2.1-.51-.52-.57-.78-.3-1.15.35-.47.88-.61 1.4-.26.83.56 1.63 1.19 2.42 1.81.48.37.48.38.84-.1.67-.91 1.34-1.82 2.38-2.35.59-.3 1.05-.24 1.49.2.39.38.48.88.19 1.41-.16.3-.38.58-.62.83-.6.64-1.21 1.27-1.84 1.89-.25.24-.11.37.06.52.61.53 1.24 1.05 1.84 1.6.31.29.64.59.86.95.4.68.02 1.44-.77 1.49-.39.03-.89-.01-1.18-.23-.75-.56-1.42-1.23-2.11-1.86-.14-.13-.27-.29-.41-.45Z"/></svg>