<svg xmlns="http://www.w3.org/2000/svg" viewBox="0 0 82 82"><circle cx="41" cy="41" r="41" fill="none"/><path fill="#fff" d="M22.47 35.73c-1.77-.14-3.53-.23-5.28-.45-2.13-.27-4.12-.96-5.64-2.58-2.01-2.14-2.12-5.92-.25-8.44 1.78-2.39 4.25-3.73 7.06-4.51.72-.2 1.47-.31 2.2-.51.18-.05.43-.26.44-.41.1-2.78 1.91-3.98 4.27-4.67 3.05-.88 6.09-.6 9.12.15.38.09.76.19 1.11.36 3.39 1.66 5.71 4.23 6.69 7.93 1.06 4 .76 7.98-.29 11.93-.16.6-.33 1.19-.53 1.78-.14.4-.08.58.38.67 2.18.42 4.38.51 6.59.38 2.07-.12 4.14-.34 6.2-.34 1.56 0 3.12.24 4.67.44.39.05.76.33 1.18.53.05-.25.13-.51.16-.77.3-2.51 2.23-3.46 3.84-3.76 5.23-.97 10.5 3.69 10.31 9.02-.05 1.44-.52 2.79-1.27 4-.58.93-1.31 1.77-1.98 2.64-.09.12-.22.22-.34.31-.54.39-1.13.24-1.4-.36-1.19-2.64-3.28-4.24-5.97-5.15-.09-.03-.18-.04-.23-.05-.52.9-.98 1.79-1.54 2.62-1.28 1.91-3.04 3.35-4.81 4.77-.92.74-.9.45-.5 1.64l1.32 3.9c.37 1.09 1.1 1.33 2.1.77 2.18-1.24 4.41-2.35 6.95-2.63.15-.02.31-.04.46-.04 1.79-.06 2.56.75 2.3 2.53-.44 3.04-2.07 5.38-4.43 7.24-2.75 2.16-5.98 3.19-9.37 3.8-1.29.23-2.58.51-3.88.68-.78.1-1.58 0-2.38.04-1.66.06-3.33.23-4.99.19-4.06-.1-8.13-.21-12.18-.47-3.49-.22-6.9-.92-10.09-2.43-2.74-1.3-4.77-3.23-5.43-6.31-.14-.67-.19-1.39-.16-2.08.05-1.29.85-2.16 2.13-2.4 1.64-.31 3.2.06 4.69.72 1.61.72 1.61.77 2.52-.76.5-.85.93-1.74 1.34-2.63.09-.19.04-.55-.09-.72-2.74-3.47-4.17-7.47-4.7-11.82-.19-1.57-.22-3.16-.32-4.72Zm33.47 3.6v.33c.55 2.67-.22 4.84-2.43 6.48-2.14 1.59-4.58 2.3-7.19 2.53-2.07.18-4.07.01-6-.89-1.91-.89-3.18-3.7-2.81-5.43.25-1.18.65-2.34.96-3.51.04-.16.03-.47-.07-.53-1.64-1.04-2.2-2.73-2.71-4.45-.68-2.3-1.29-4.62-2.12-6.86-.85-2.29-2.32-4.12-4.73-4.97-2.47-.87-5.02-1.11-7.61-.7-.88.14-1.74.39-2.72.61.17.22.22.3.28.36 1.39 1.16 1.71 2.73 1.74 4.43.04 2.05-.21 4.05-.85 6-.13.4-.01.59.41.6.21 0 .43.01.64.02 1.82.04 3.64.04 5.46.15 1.12.06 2.23.27 3.33.45.36.06.79.19.73.67-.05.43-.41.56-.82.58-.64.03-1.28.08-1.91.12l-3.39.24c0 .23-.02.38 0 .53.36 2.04.63 4.09 1.1 6.1.94 3.92 2.47 7.57 5.3 10.56 1.85 1.94 4.06 3.2 6.72 3.63 2.72.45 5.36.06 7.94-.83 4.34-1.48 8.39-3.5 11.96-6.4 1.33-1.08 2.51-2.31 3.23-3.91.88-1.96.35-4.15-1.32-5.5-.13-.11-.29-.23-.45-.24-.88-.07-1.77-.11-2.68-.16Zm14.86 7.59c.35-.67.7-1.21.93-1.79.76-1.92.93-3.85.04-5.79-.8-1.74-2.26-2.78-3.92-3.54-.72-.33-1.54-.49-2.33-.59-1.75-.21-3.08.83-3.71 2.52-.22.6-.23.94.29 1.42.55.51.99 1.19 1.32 1.87.18.38.35.58.72.71 2.61.88 4.77 2.37 6.29 4.7.09.14.2.27.38.5Zm-21.31-6.99c-1.18 0-2.3.06-3.41-.01-2.08-.14-4.19-.13-6.17-.93-.4-.16-.56-.04-.66.35-.11.43-.28.84-.4 1.27-.83 3.2.67 5.48 3.92 6 1.45.23 2.9.18 4.33-.14 1.92-.43 3.8-1.03 5.3-2.37 1.69-1.5 1.53-2.32.81-4.19-.17-.45-.57-.36-.89-.3-.18.03-.43.2-.47.36-.88 3.24-3.72 4.82-6.4 4.92-1.69.06-3.32-.31-4.61-1.54-.87-.83-.97-1.85-.28-2.82.13-.18.42-.25.64-.37.05.22.19.47.15.67-.11.5.02.92.39 1.2.44.33.92.69 1.43.83 1.45.4 2.88.24 4.24-.43 1.05-.52 1.81-1.29 2.1-2.48Zm-16.16 19.5c.25.07.45.14.65.19.73.2 1.46.49 2.21.55.48.04 1.01-.33 1.32.35 0 .02.07.02.11.03 1.44.19 2.87.48 4.31.55 3.32.17 6.6-.23 9.83-1.04.3-.08.43-.2.38-.52-.25-1.42-.5-2.83-.76-4.36-5.82 3.42-11.78 4.51-18.16 1.84.04.86.08 1.63.12 2.42ZM17.44 22.38c-.92.5-1.9.92-2.77 1.52-1.87 1.28-2.29 2.77-1.04 5.01.76 1.37 1.78 2.53 2.94 3.57.32.29.79.43 1.2.59.29.11.48-.02.51-.36.03-.38.1-.77.14-1.15.21-1.83.38-3.66-.05-5.48-.28-1.2-.6-2.39-.93-3.7Zm45.31 35.2c.37.67-.01 1.11-.37 1.55-1.44 1.78-2.88 3.55-4.3 5.34-.33.41-.59.88-.95 1.44.34-.02.55 0 .72-.06 1.12-.42 2.25-.82 3.34-1.31.36-.16.71-.49.93-.84 1.29-2.07 2.55-4.16 3.81-6.24.09-.16.16-.33.28-.59-1.26-.17-2.25.44-3.45.7Zm-7.09-1.91c-.45.91-.8 1.77-1.28 2.55-.3.5-.34.86-.05 1.37.6 1.06.44 1.6-.64 2.13-.53.26-.8.66-1.13 1.12-.9 1.27-1.94 2.44-2.94 3.64-.18.21-.4.38-.6.57.02.05.05.09.07.14.97-.08 1.94-.15 2.91-.25.14-.02.32-.15.4-.28 1.22-1.97 2.36-4 3.68-5.9.67-.97.84-1.76.3-2.81-.35-.69-.48-1.49-.71-2.28ZM37.6 18.32c-1.2-.88-2.36-1.56-3.71-1.84-.27-.05-.65.09-.89.27-.86.64-1.28 1.59-1.63 2.56-.4 1.12-.38 1.13.69 1.66.12.06.26.1.36.18.37.28.64.17.92-.16 1.04-1.22 2.31-2.11 3.88-2.52.09-.02.17-.07.37-.15Zm-.28 9.7c.89 0 1.9-.02 2.9 0 .43 0 .61-.16.58-.57-.08-1.06-.15-2.12-.24-3.18-.01-.13-.18-.35-.28-.35-1.19-.08-2.39-.29-3.49.44-.36.24-.44.39-.29.82.32.91.55 1.86.83 2.84Zm-8.46 25.97c-.38 1.03-.73 2.03-1.11 3.01-.19.48-.42.95-.69 1.39-.32.52-.79.7-1.4.44-.12-.05-.38.02-.46.13-.69 1-1.38 2.01-2.02 3.05-.75 1.21-.73 1.22.44 2.06.12.09.25.17.41.28 1.94-3.22 3.88-6.42 5.83-9.65-.3-.21-.62-.45-.99-.71Zm8.51-24.6c.06.64.1 1.17.17 1.7.18 1.34.43 2.67 1.17 3.84.17.27.43.49.66.77.1-.15.14-.19.16-.24.38-1.75.76-3.5 1.12-5.25.02-.1-.15-.33-.25-.35-.96-.17-1.93-.3-3.03-.46ZM31.66 56.6c.05-.03.11-.06.16-.1l-.72-.78c-.18.23-.39.43-.51.69-.06.12.08.33.14.5.09.27.29.56.24.81-.16.85-.34 1.71-.64 2.52-.62 1.69-1.32 3.34-1.96 5.02-.06.15-.01.49.05.51.4.12.83.2 1.25.24.09 0 .25-.15.31-.26.6-1.28 1.19-2.56 1.76-3.84.07-.15.07-.35.04-.52-.11-.61-.35-1.22-.36-1.83 0-.98.15-1.97.23-2.95Zm2.2 10.12c.94.1 1.73.2 2.51.26.13.01.34-.1.41-.22.8-1.25 1.58-2.5 2.39-3.79-.91-.11-1.82-.24-2.73-.33-.14-.01-.34.14-.43.27-.29.43-.56.88-.82 1.33-.45.8-.87 1.62-1.33 2.48Zm6.24-44.41c-.4-.8-.74-1.51-1.11-2.19-.06-.12-.29-.23-.43-.21-1.55.23-3.01.69-4.15 1.86-.24.25-.24.45.01.68.31.29.63.57.91.89.25.28.46.25.73.03.98-.77 2.1-1.13 3.35-1.06.17.01.34 0 .68 0Zm1.03 44.87c1.03 0 1.9.02 2.77-.02.2 0 .47-.18.59-.35.64-.92 1.24-1.87 1.85-2.81.12-.18.22-.38.39-.7-.63 0-1.13.06-1.61-.01-.98-.16-1.58.26-2.07 1.07-.56.94-1.23 1.81-1.92 2.82Zm-9.3-51.26c-.61-.07-1.09-.08-1.54-.2-.61-.16-1.08.03-1.54.41-.84.69-1.28 2.06-.94 3.1.05.14.19.31.33.36.47.16.96.3 1.45.39.13.02.41-.14.43-.26.27-1.37.69-2.67 1.82-3.8Zm-4.67-.17c-2.48.27-4.22 1.6-4.42 3.26 1.24.08 2.48.16 3.79.24-.04-1.18-.13-2.36.63-3.5Zm5.67 50.83c.68-1.36 1.35-2.67 1.98-3.99.05-.11-.05-.4-.16-.46-1.11-.57-1.11-.56-1.76.5-.1.16-.21.33-.3.5-.48.86-.96 1.72-1.42 2.59-.19.35-.2.61.33.65.46.03.91.14 1.33.21Zm12.72.57c.81-.04 1.53.29 2.06-.3 1.02-1.13 1.97-2.32 2.95-3.49.1-.12.15-.28.29-.54-.42.09-.7.21-.97.19-1.32-.08-2.01.68-2.6 1.74-.44.8-1.07 1.5-1.73 2.4Zm-20.48-2.2c.57.13 1.08.22 1.58.36.37.1.56 0 .68-.37.53-1.63 1.09-3.25 1.63-4.88.12-.38.22-.76.33-1.15l-.15-.06c-1.33 2-2.66 4-4.06 6.09Zm13.02 1.94.06.18c.65 0 1.3.01 1.95-.01.11 0 .25-.12.31-.22.55-1.07 1.08-2.14 1.6-3.21.05-.11.05-.33-.03-.4-.36-.31-1.26-.11-1.52.31-.18.3-.38.59-.58.87-.59.83-1.19 1.66-1.79 2.48Zm17.02-14.06c-1.11.71-2.09 1.33-3.03 1.94.51.98.98 1.88 1.44 2.78.35-.63.52-1.2.74-1.75.19-.48.25-1.08.95-1.18.06 0 .15-.15.14-.21-.06-.48-.15-.96-.25-1.57Zm-1.24 13.79c1.07-.02 1.9-.12 2.33-1.26.37-.98 1.01-1.85 1.56-2.76.3-.5.64-.98 1-1.51-.56-.17-.91.04-1.17.39-1.22 1.68-2.44 3.37-3.72 5.14Zm-31.98-8.86c-.73-.2-1.42-.4-2.14-.1-.37.15-.67.4-.59.82.17.92.64 1.7 1.25 2.56.52-1.14.98-2.15 1.48-3.28Zm-.22 4.59c.67-1.26 1.35-2.51 2.01-3.77.05-.1-.03-.4-.11-.43-.17-.06-.4-.04-.57.04-.11.05-.16.25-.23.39-.47.95-.9 1.93-1.41 2.86-.27.49-.26.77.3.91Z"/><path fill="#fff" d="M25.71 26.71c.05-.41.12-1.02.22-1.63.08-.48.46-.64.89-.68.41-.04.85.01.96.46.18.78.37 1.58.35 2.37-.03.81-.61 1.22-1.3 1.16-.65-.06-1.13-.68-1.11-1.67Z"/></svg>