<?xml version="1.0" encoding="UTF-8"?>
<svg id="_Слой_2" data-name="Слой 2" xmlns="http://www.w3.org/2000/svg" viewBox="0 0 321 316.78">
  <defs>
    <style>
      .cls-1 {
        fill: #ffda88;
      }

      .cls-2 {
        fill: #fc8e86;
      }

      .cls-3 {
        fill: #789eea;
      }
    </style>
  </defs>
  <g id="Layer_5" data-name="Layer 5">
    <g>
      <path class="cls-3" d="m97.18,97.18H0V0h97.18v97.18Zm-93.86-3.32h90.53V3.32H3.32v90.54Z"/>
      <path class="cls-3" d="m208.81,97.18h-97.18V0h97.18v97.18Zm-93.86-3.32h90.53V3.32h-90.53v90.54Z"/>
      <path class="cls-3" d="m321,97.18h-97.18V0h97.18v97.18Zm-93.86-3.32h90.53V3.32h-90.53v90.54Z"/>
      <path class="cls-3" d="m208.81,206.62h-97.18v-97.18h97.18v97.18Zm-93.86-3.32h90.53v-90.54h-90.53v90.54Z"/>
      <path class="cls-3" d="m321,206.62h-97.18v-97.18h97.18v97.18Zm-93.86-3.32h90.53v-90.54h-90.53v90.54Z"/>
      <path class="cls-3" d="m97.18,316.78H0v-97.18h97.18v97.18Zm-93.86-3.32h90.53v-90.54H3.32v90.54Z"/>
      <path class="cls-3" d="m208.81,316.78h-97.18v-97.18h97.18v97.18Zm-93.86-3.32h90.53v-90.54h-90.53v90.54Z"/>
      <path class="cls-3" d="m31.27,21h5.9v21.71l23.12-21.71h7.77l-27.78,25.96,29.95,31.89h-7.7l-25.35-26.94v26.94h-5.9V21Z"/>
      <path class="cls-3" d="m157.33,21h5.78v57.85h-5.78V21Z"/>
      <path class="cls-3" d="m249.48,78.85V21h12c8.65,0,14.93.7,18.84,2.08,5.61,1.97,10,5.38,13.15,10.22,3.16,4.85,4.74,10.63,4.74,17.34,0,5.79-1.25,10.89-3.75,15.3-2.5,4.4-5.76,7.66-9.75,9.75-4,2.1-9.6,3.15-16.81,3.15h-18.41Zm5.54-5.47h6.69c8,0,13.54-.5,16.63-1.49,4.35-1.41,7.77-3.96,10.26-7.64,2.49-3.68,3.74-8.18,3.74-13.5,0-5.58-1.35-10.35-4.05-14.3-2.7-3.96-6.46-6.67-11.29-8.13-3.62-1.1-9.58-1.65-17.89-1.65h-4.09v46.72Z"/>
      <g>
        <path class="cls-3" d="m136.26,176.31l4.92-2.95c3.46,6.37,7.46,9.56,11.99,9.56,1.94,0,3.76-.45,5.47-1.36,1.7-.9,3-2.12,3.89-3.64.89-1.52,1.34-3.13,1.34-4.84,0-1.94-.66-3.84-1.97-5.7-1.81-2.57-5.11-5.66-9.91-9.28-4.82-3.64-7.83-6.28-9.01-7.9-2.04-2.73-3.07-5.68-3.07-8.85,0-2.52.6-4.81,1.81-6.88,1.21-2.07,2.9-3.7,5.09-4.9,2.19-1.19,4.57-1.79,7.14-1.79,2.73,0,5.28.68,7.65,2.02,2.37,1.35,4.88,3.83,7.53,7.45l-4.72,3.58c-2.18-2.88-4.03-4.78-5.56-5.7-1.53-.92-3.21-1.38-5.01-1.38-2.33,0-4.24.71-5.72,2.12-1.48,1.42-2.22,3.16-2.22,5.23,0,1.26.26,2.48.79,3.66.52,1.18,1.48,2.46,2.87,3.85.76.73,3.25,2.66,7.47,5.78,5.01,3.7,8.44,6.99,10.3,9.87,1.86,2.88,2.79,5.78,2.79,8.69,0,4.2-1.59,7.84-4.78,10.93-3.19,3.09-7.06,4.64-11.62,4.64-3.51,0-6.7-.94-9.56-2.81-2.86-1.87-5.49-5.01-7.9-9.42Z"/>
        <path class="cls-3" d="m185.3,145.99h-4.05l-.87-18.21h5.82l-.9,18.21Z"/>
      </g>
      <path class="cls-3" d="m138.86,237.49h6.65l14.8,23.86,14.57-23.86h6.69l-18.33,30.2v27.65h-5.7v-27.65l-18.68-30.2Z"/>
      <path class="cls-3" d="m48.91,237.49l26.98,57.85h-6.24l-9.1-19.03h-24.92l-9.01,19.03h-6.45l27.33-57.85h1.42Zm-.73,12.29l-9.91,20.94h19.78l-9.86-20.94Z"/>
      <path class="cls-3" d="m237.53,129.27h5.94l11.82,41.69,16.58-41.69h1.2l16.39,41.69,12.02-41.69h5.89l-16.62,57.85h-1.07l-17.17-43.77-17.5,43.77h-1.08l-16.4-57.85Z"/>
      <path class="cls-1" d="m272.41,227.3l43.02,86.05h-86.05l43.02-86.05m0-7.69l-48.59,97.18h97.18l-48.59-97.18h0Z"/>
      <path class="cls-2" d="m48.59,114.7c24.82,0,45.02,20.2,45.02,45.02s-20.2,45.02-45.02,45.02S3.57,184.54,3.57,159.72s20.2-45.02,45.02-45.02m0-3.57C21.76,111.13,0,132.88,0,159.72s21.76,48.59,48.59,48.59,48.59-21.75,48.59-48.59-21.76-48.59-48.59-48.59h0Z"/>
    </g>
  </g>
</svg>