<?xml version="1.0" encoding="UTF-8"?>
<svg id="_Слой_2" data-name="Слой 2" xmlns="http://www.w3.org/2000/svg" viewBox="0 0 253.49 99.79">
  <defs>
    <style>
      .cls-1 {
        fill: #ffda88;
      }

      .cls-2 {
        fill: #fc8e86;
      }

      .cls-3 {
        fill: #789eea;
      }
    </style>
  </defs>
  <g id="Layer_5" data-name="Layer 5">
    <g>
      <rect class="cls-3" y="1.35" width="28.86" height="28.86"/>
      <rect class="cls-3" x="36.2" y="1.35" width="28.86" height="28.86"/>
      <rect class="cls-3" x="72.4" y="1.35" width="28.86" height="28.86"/>
      <rect class="cls-3" x="36.2" y="36.66" width="28.86" height="28.86"/>
      <rect class="cls-3" x="72.4" y="36.66" width="28.86" height="28.86"/>
      <rect class="cls-3" y="70.81" width="28.86" height="28.86"/>
      <rect class="cls-3" x="36.2" y="70.81" width="28.86" height="28.86"/>
      <polygon class="cls-1" points="72.84 99.68 100.82 99.68 86.83 71.69 72.84 99.68"/>
      <path class="cls-2" d="m14.43,64.98c7.66,0,13.89-6.23,13.89-13.89s-6.23-13.89-13.89-13.89S.55,43.43.55,51.09s6.23,13.89,13.89,13.89Z"/>
      <path class="cls-3" d="m124.71,1.1h4.48v16.48L146.73,1.1h5.89l-21.09,19.7,22.73,24.21h-5.84l-19.24-20.45v20.45h-4.48V1.1Z"/>
      <path class="cls-3" d="m160.18,1.1h4.39v43.91h-4.39V1.1Z"/>
      <path class="cls-3" d="m175.1,45.01V1.1h9.1c6.57,0,11.33.53,14.3,1.58,4.26,1.49,7.59,4.08,9.98,7.76,2.4,3.68,3.6,8.07,3.6,13.16,0,4.4-.95,8.27-2.85,11.61-1.9,3.34-4.37,5.81-7.4,7.4-3.04,1.59-7.29,2.39-12.76,2.39h-13.97Zm4.21-4.15h5.07c6.07,0,10.28-.38,12.62-1.13,3.3-1.07,5.9-3.01,7.79-5.8,1.89-2.79,2.84-6.21,2.84-10.24,0-4.23-1.03-7.85-3.08-10.85-2.05-3-4.91-5.06-8.57-6.17-2.75-.84-7.27-1.25-13.58-1.25h-3.1v35.46Z"/>
      <path class="cls-3" d="m120.57,55.88h4.51l8.97,31.64,12.59-31.64h.91l12.44,31.64,9.12-31.64h4.47l-12.62,43.91h-.82l-13.03-33.22-13.28,33.22h-.82l-12.45-43.91Z"/>
      <path class="cls-3" d="m194.89,55.88l20.48,43.91h-4.74l-6.91-14.45h-18.91l-6.84,14.45h-4.9l20.74-43.91h1.07Zm-.55,9.33l-7.52,15.89h15.01l-7.49-15.89Z"/>
      <path class="cls-3" d="m212.59,55.88h5.05l11.23,18.11,11.06-18.11h5.07l-13.91,22.92v20.98h-4.33v-20.98l-14.18-22.92Z"/>
      <g>
        <path class="cls-3" d="m215.59,36.83l3.73-2.24c2.63,4.84,5.66,7.25,9.1,7.25,1.47,0,2.85-.34,4.15-1.03,1.29-.69,2.28-1.61,2.95-2.76.68-1.15,1.02-2.38,1.02-3.67,0-1.47-.5-2.91-1.49-4.33-1.37-1.95-3.88-4.3-7.52-7.04-3.66-2.77-5.94-4.77-6.83-6-1.55-2.07-2.33-4.31-2.33-6.72,0-1.91.46-3.65,1.37-5.22.92-1.57,2.2-2.81,3.87-3.72,1.66-.91,3.47-1.36,5.42-1.36,2.07,0,4,.51,5.81,1.54,1.8,1.02,3.71,2.91,5.72,5.66l-3.58,2.72c-1.65-2.19-3.06-3.63-4.22-4.33-1.16-.7-2.43-1.05-3.81-1.05-1.77,0-3.22.54-4.34,1.61-1.12,1.07-1.69,2.4-1.69,3.97,0,.95.2,1.88.6,2.78.4.9,1.12,1.87,2.18,2.93.58.56,2.47,2.02,5.67,4.39,3.8,2.81,6.41,5.3,7.82,7.49,1.41,2.19,2.12,4.39,2.12,6.6,0,3.18-1.21,5.95-3.63,8.3-2.42,2.35-5.36,3.52-8.82,3.52-2.67,0-5.08-.71-7.25-2.13-2.17-1.42-4.17-3.81-6-7.15Z"/>
        <path class="cls-3" d="m252.81,13.82h-3.07l-.66-13.82h4.42l-.69,13.82Z"/>
      </g>
    </g>
  </g>
</svg>