<svg xmlns="http://www.w3.org/2000/svg" viewBox="0 0 246.29 239.26">
  <defs>
    <style>
      .cls-1 {
        fill: #ffda88;
      }

      .cls-2 {
        fill: #fff;
      }

      .cls-3 {
        fill: #fc8e86;
      }

      .cls-4 {
        fill: #789eea;
      }
    </style>
  </defs>
  <g id="Layer_5" data-name="Layer 5">
    <g>
      <rect class="cls-4" width="72.64" height="72.64"/>
      <rect class="cls-4" x="86.83" width="72.64" height="72.64"/>
      <rect class="cls-4" x="173.65" width="72.64" height="72.64"/>
      <rect class="cls-4" x="86.83" y="84.7" width="72.64" height="72.64"/>
      <rect class="cls-4" x="173.65" y="84.7" width="72.64" height="72.64"/>
      <rect class="cls-4" y="166.62" width="72.64" height="72.64"/>
      <rect class="cls-4" x="86.83" y="166.62" width="72.64" height="72.64"/>
      <polygon class="cls-1" points="246.29 239.26 173.65 239.26 209.97 166.62 246.29 239.26"/>
      <path class="cls-2" d="m23.35,14.96h4.56v16.8l17.9-16.8h6.01l-21.5,20.09,23.18,24.68h-5.96l-19.62-20.85v20.85h-4.56V14.96Z"/>
      <path class="cls-2" d="m120.9,14.96h4.47v44.77h-4.47V14.96Z"/>
      <path class="cls-2" d="m192.22,59.73V14.96h9.28c6.7,0,11.55.54,14.58,1.61,4.34,1.52,7.74,4.16,10.18,7.91,2.44,3.75,3.67,8.23,3.67,13.42,0,4.48-.97,8.43-2.91,11.84-1.94,3.41-4.45,5.92-7.55,7.55-3.09,1.62-7.43,2.43-13.01,2.43h-14.24Zm4.29-4.23h5.17c6.19,0,10.48-.39,12.87-1.16,3.37-1.09,6.02-3.07,7.94-5.91,1.93-2.85,2.89-6.33,2.89-10.45,0-4.32-1.04-8.01-3.13-11.07s-5-5.16-8.73-6.29c-2.8-.85-7.42-1.28-13.85-1.28h-3.17v36.16Z"/>
      <path class="cls-2" d="m106.62,179.17h5.15l11.46,18.46,11.28-18.46h5.17l-14.18,23.37v21.4h-4.41v-21.4l-14.46-23.37Z"/>
      <path class="cls-2" d="m37,179.17l20.88,44.77h-4.83l-7.04-14.73h-19.29l-6.97,14.73h-4.99l21.15-44.77h1.1Zm-.57,9.51l-7.67,16.21h15.31l-7.63-16.21Z"/>
      <path class="cls-2" d="m182.97,97.98h4.6l9.15,32.26,12.83-32.26h.93l12.68,32.26,9.3-32.26h4.56l-12.86,44.77h-.83l-13.29-33.87-13.54,33.87h-.84l-12.69-44.77Z"/>
      <circle class="cls-3" cx="36.32" cy="121.01" r="35.01"/>
      <g>
        <path class="cls-2" d="m107.44,137.48l3.8-2.28c2.68,4.93,5.77,7.4,9.28,7.4,1.5,0,2.91-.35,4.23-1.05,1.32-.7,2.32-1.64,3.01-2.82.69-1.18,1.04-2.42,1.04-3.74,0-1.5-.51-2.97-1.52-4.41-1.4-1.99-3.96-4.38-7.67-7.18-3.73-2.82-6.06-4.86-6.97-6.12-1.58-2.11-2.37-4.39-2.37-6.85,0-1.95.47-3.72,1.4-5.33.93-1.6,2.25-2.86,3.94-3.79,1.69-.92,3.53-1.38,5.52-1.38,2.11,0,4.08.52,5.92,1.57,1.84,1.04,3.78,2.97,5.83,5.77l-3.65,2.77c-1.68-2.23-3.12-3.7-4.31-4.41-1.19-.71-2.48-1.07-3.88-1.07-1.81,0-3.28.55-4.43,1.64-1.15,1.1-1.72,2.45-1.72,4.05,0,.97.2,1.92.61,2.83.41.91,1.15,1.91,2.22,2.98.59.57,2.52,2.06,5.78,4.47,3.87,2.86,6.53,5.41,7.97,7.64,1.44,2.23,2.16,4.47,2.16,6.73,0,3.25-1.23,6.07-3.7,8.46-2.47,2.39-5.46,3.59-8.99,3.59-2.72,0-5.18-.72-7.4-2.18s-4.25-3.88-6.12-7.29Z"/>
        <path class="cls-2" d="m145.4,114.02h-3.13l-.67-14.09h4.5l-.7,14.09Z"/>
      </g>
    </g>
  </g>
</svg>