<?xml version="1.0" standalone="no"?>
<!DOCTYPE svg PUBLIC "-//W3C//DTD SVG 20010904//EN"
 "http://www.w3.org/TR/2001/REC-SVG-20010904/DTD/svg10.dtd">
<svg version="1.0" xmlns="http://www.w3.org/2000/svg"
 width="984.000000pt" height="984.000000pt" viewBox="0 0 984.000000 984.000000"
 preserveAspectRatio="xMidYMid meet">
<metadata>
Created by potrace 1.14, written by Peter Selinger 2001-2017
</metadata>
<g transform="translate(0.000000,984.000000) scale(0.100000,-0.100000)"
fill="#000000" stroke="none">
<path d="M0 8245 l0 -1455 1453 2 1452 3 3 1453 2 1452 -1455 0 -1455 0 0
-1455z m1110 519 c0 -199 4 -334 9 -332 5 2 146 131 313 288 167 157 326 306
354 333 l52 48 108 -3 108 -3 -422 -394 c-232 -217 -422 -397 -422 -401 0 -6
726 -785 868 -932 l46 -48 -111 0 -111 0 -375 398 c-206 218 -384 406 -396
416 l-21 19 0 -416 0 -417 -85 0 -85 0 0 890 0 890 85 0 85 0 0 -336z"/>
<path d="M3462 8248 l3 -1453 1455 0 1455 0 3 1453 2 1452 -1460 0 -1460 0 2
-1452z m1538 -38 l0 -890 -80 0 -80 0 0 890 0 890 80 0 80 0 0 -890z"/>
<path d="M6932 8248 l3 -1453 1453 -3 1452 -2 0 1455 0 1455 -1455 0 -1455 0
2 -1452z m1494 827 c124 -17 223 -44 299 -83 218 -110 371 -308 427 -556 29
-123 30 -353 4 -476 -47 -225 -199 -441 -372 -532 -173 -91 -290 -108 -746
-108 l-348 0 0 892 0 891 313 -6 c188 -4 356 -12 423 -22z"/>
<path d="M7850 8204 l0 -726 288 5 c332 6 394 15 522 78 155 77 275 224 322
395 30 113 30 345 0 457 -33 121 -85 210 -177 303 -160 162 -346 214 -770 214
l-185 0 0 -726z"/>
<path d="M3460 4865 l0 -1455 1460 0 1460 0 0 1455 0 1455 -1460 0 -1460 0 0
-1455z m1493 820 c96 -25 157 -62 243 -150 117 -118 116 -112 36 -173 l-66
-51 -35 42 c-125 149 -243 201 -372 164 -108 -32 -173 -115 -172 -222 0 -127
52 -194 282 -369 223 -169 307 -247 371 -342 69 -104 94 -189 88 -304 -4 -77
-9 -98 -41 -163 -88 -179 -253 -279 -457 -279 -109 0 -190 22 -280 77 -81 49
-183 162 -230 255 l-19 37 64 36 c35 20 68 37 73 37 5 0 28 -28 50 -63 52 -81
138 -161 204 -192 71 -33 173 -34 255 -3 79 29 163 113 188 187 23 69 17 160
-14 224 -32 66 -168 206 -298 308 -286 225 -349 291 -387 407 -78 236 48 472
287 537 69 18 160 18 230 0z m873 -67 c-3 -46 -8 -141 -11 -213 -3 -71 -8
-158 -11 -192 l-6 -63 -53 0 -52 0 -7 98 c-3 53 -8 162 -11 242 -3 80 -8 160
-11 178 l-5 32 87 0 86 0 -6 -82z"/>
<path d="M6930 4865 l0 -1455 1455 0 1455 0 0 1455 0 1455 -1455 0 -1455 0 0
-1455z m564 898 c12 -44 111 -392 181 -638 151 -534 178 -625 185 -625 4 0 69
156 145 348 356 893 370 927 386 930 12 2 23 -14 39 -60 13 -35 49 -128 81
-208 166 -417 389 -991 389 -1000 0 -5 6 -10 13 -10 7 0 22 36 36 88 13 48 57
200 96 337 95 325 210 725 230 798 l16 57 85 0 c46 0 84 -1 84 -3 0 -4 -56
-201 -185 -647 -53 -184 -112 -389 -131 -455 -139 -493 -193 -670 -205 -670
-8 0 -53 102 -115 260 -57 143 -175 444 -263 669 -89 225 -163 412 -166 414
-3 3 -7 3 -9 1 -2 -2 -124 -307 -272 -676 -147 -370 -273 -673 -280 -673 -12
0 -28 56 -330 1125 -36 127 -92 323 -125 437 -32 113 -59 209 -59 212 0 3 38
6 84 6 72 0 85 -3 90 -17z"/>
<path d="M1300 6264 c-329 -42 -608 -179 -841 -413 -164 -165 -264 -323 -334
-529 -62 -184 -70 -236 -70 -462 0 -181 3 -216 24 -299 71 -287 184 -487 385
-686 212 -211 416 -322 713 -387 133 -29 396 -31 528 -5 422 86 760 327 969
693 65 114 103 211 137 349 192 787 -296 1554 -1096 1720 -78 16 -340 28 -415
19z"/>
<path d="M0 1595 l0 -1455 1455 0 1455 0 -2 1453 -3 1452 -1452 3 -1453 2 0
-1455z m1520 843 c26 -57 80 -172 119 -255 39 -84 102 -219 140 -300 38 -82
98 -211 134 -288 105 -226 199 -428 287 -615 45 -96 86 -185 91 -198 l9 -23
-90 3 -90 3 -84 175 c-46 96 -108 228 -139 293 l-56 117 -389 0 -389 0 -43
-92 c-23 -51 -85 -184 -138 -296 l-95 -202 -93 0 -92 0 82 178 c90 192 202
428 344 727 149 315 343 725 378 803 21 46 39 72 49 72 11 0 33 -35 65 -102z"/>
<path d="M1440 2151 c0 -6 -65 -147 -145 -315 -80 -168 -145 -310 -145 -316 0
-7 103 -10 309 -10 l309 0 -100 213 c-55 116 -123 263 -151 324 -29 62 -58
113 -64 113 -7 0 -13 -4 -13 -9z"/>
<path d="M3467 3043 c-4 -3 -7 -658 -7 -1455 l0 -1448 1460 0 1460 0 -2 1453
-3 1452 -1451 3 c-798 1 -1454 -1 -1457 -5z m1055 -603 c200 -330 394 -634
403 -632 6 1 108 163 228 359 120 197 221 361 226 366 4 4 49 6 100 5 l92 -3
-158 -260 c-87 -143 -214 -351 -281 -462 l-122 -201 0 -426 0 -426 -85 0 -85
0 0 426 c0 421 0 427 -22 463 -12 20 -137 223 -278 451 -141 228 -260 421
-264 428 -6 10 13 12 90 10 l98 -3 58 -95z"/>
<path d="M7662 1594 c-397 -794 -722 -1446 -722 -1449 0 -3 653 -5 1450 -5
798 0 1450 2 1450 5 0 10 -1440 2884 -1447 2888 -5 3 -334 -644 -731 -1439z"/>
</g>
</svg>
