<svg xmlns="http://www.w3.org/2000/svg" viewBox="0 0 24 24"><path d="m10.0376 5.31617.649 1.16293c.5857 1.04948.3506 2.42622-.5719 3.3487-.0001.00012-1.11882 1.119.9098 3.1477 2.028 2.028 3.1469.9106 3.1477.9098.9225-.9225 2.2992-1.1576 3.3487-.5719l1.1629.649c1.5848.8844 1.7719 3.1068.379 4.4998-.837.837-1.8624 1.4883-2.9959 1.5312-1.9081.0724-5.1486-.4105-8.3992-3.6611-3.25057-3.2506-3.73349-6.49108-3.66115-8.39921.04297-1.13349.69425-2.15886 1.53126-2.99586 1.39295-1.39295 3.61536-1.20579 4.49979.37894ZM13.2595 1.87983c.0662-.40889.4527-.68626.8616-.62007.0253.00485.1068.02007.1494.02957.0854.01901.2044.04826.3528.09149.2968.08644.7114.22885 1.209.45698.9963.45676 2.3221 1.25576 3.6979 2.63156 1.3758 1.3758 2.1748 2.70161 2.6315 3.69789.2282.49762.3706.91222.457 1.209.0432.14841.0725.26744.0915.35276.0095.04267.0165.07693.0213.10224l.0058.0312c.0661.40885-.2087.81145-.6176.87765-.4077.066-.7918-.2101-.8596-.617-.0021-.011-.0079-.0403-.014-.068-.0124-.0554-.0337-.14322-.0675-.25938-.0677-.23233-.1852-.57766-.3804-1.00334-.3898-.85031-1.0908-2.02449-2.3287-3.26236-1.2378-1.23786-2.412-1.93885-3.2623-2.32868-.4257-.19516-.771-.31269-1.0034-.38037-.1161-.03383-.2621-.06734-.3175-.07967-.407-.06783-.6928-.45375-.6268-.86147Z"/><path fill-rule="evenodd" d="M13.4857 5.3293c.1138-.39828.5289-.6289.9272-.51511l-.206.72115.206-.72115.0015.00042.0015.00044.0033.00097.0078.00232.0198.00616c.015.00482.0339.0111.0563.01907.0449.01594.1043.0386.1771.0698.1457.06244.3447.15886.5893.30357.4894.28968 1.1576.77086 1.9426 1.55583.785.78498 1.2661 1.45316 1.5558 1.94263.1447.24451.2411.44357.3036.58926.0312.0728.0539.13216.0698.17707.008.02245.0142.04128.0191.05636l.0061.01979.0023.00775.001.00333.0004.00154s.0005.00144-.7207.20748l.7212-.20604c.1138.39827-.1169.81336-.5151.92716-.3949.1128-.8064-.1129-.9243-.50497l-.0037-.01078c-.0053-.01503-.0163-.04461-.0348-.08781-.037-.08634-.1041-.22757-.2157-.41616-.223-.37674-.6257-.94599-1.3257-1.64595-.6999-.69995-1.2692-1.10265-1.6459-1.32562-.1886-.11162-.3298-.17872-.4162-.21572-.0432-.01851-.0728-.02955-.0878-.03488l-.0108-.00369c-.392-.11788-.6178-.52933-.505-.92422Z" clip-rule="evenodd"/></svg>