<svg xmlns="http://www.w3.org/2000/svg" viewBox="0 0 24 24"><path fill-rule="evenodd" d="M23.4493 5.94799c.1668-.54645 0-.94799-.794-.94799h-2.6256c-.6676 0-.9754.34687-1.1423.72936 0 0-1.3353 3.19671-3.2268 5.27314-.6119.6011-.8901.7924-1.2239.7924-.1669 0-.4173-.1913-.4173-.7377V5.94799c0-.65574-.1849-.94799-.7413-.94799H9.15213c-.41719 0-.6681.30434-.6681.59278 0 .62163.94571.76499 1.04319 2.51363v3.79779c0 .8326-.15309.9836-.4869.9836-.89009 0-3.05525-3.21098-4.33939-6.88519C4.44927 5.28847 4.19686 5 3.52583 5H.900218C.150044 5 0 5.34687 0 5.72936c0 .68308.890141 4.07103 4.14464 8.55184C6.31429 17.3412 9.37118 19 12.1528 19c1.669 0 1.8755-.3684 1.8755-1.003v-2.3128c0-.7368.1581-.8839.6866-.8839.3894 0 1.057.1913 2.6147 1.6667C19.1099 18.2156 19.4034 19 20.4047 19h2.6257c.7501 0 1.1252-.3684.9088-1.0955-.2368-.7246-1.0867-1.7759-2.2145-3.0222-.612-.7104-1.53-1.4754-1.8082-1.858-.3894-.4917-.2781-.7103 0-1.1474 0 0 3.199-4.42623 3.5328-5.92891Z" clip-rule="evenodd"/></svg>